<svg xmlns="http://www.w3.org/2000/svg" width="77.754" height="20.292" viewBox="0 0 77.754 20.292">
    <g>
        <path fill="#494e52" d="M-59.83-17.487h-3.081l-.6 2.29H-65.9l3.5-11.188h2.067l3.515 11.185h-2.413zm-2.59-1.883h2.09l-1.045-3.988zm9.006 4.172h-2.259v-11.187h2.259zm10.251-2.935a1.4 1.4 0 0 0-.35-1.034 4.026 4.026 0 0 0-1.272-.726 5.926 5.926 0 0 1-2.42-1.495 3 3 0 0 1-.738-2.025 2.839 2.839 0 0 1 1-2.271 3.783 3.783 0 0 1 2.547-.857 3.814 3.814 0 0 1 1.836.434 3.012 3.012 0 0 1 1.241 1.226 3.677 3.677 0 0 1 .434 1.8h-2.251a1.855 1.855 0 0 0-.334-1.195 1.171 1.171 0 0 0-.964-.411 1.207 1.207 0 0 0-.922.35 1.314 1.314 0 0 0-.33.941 1.159 1.159 0 0 0 .369.834 4.241 4.241 0 0 0 1.306.772 5.6 5.6 0 0 1 2.378 1.452 3.235 3.235 0 0 1 .742 2.19 2.888 2.888 0 0 1-.93 2.282 3.681 3.681 0 0 1-2.528.822 4.353 4.353 0 0 1-1.975-.446 3.343 3.343 0 0 1-1.395-1.276 3.705 3.705 0 0 1-.5-1.959h2.267a2.138 2.138 0 0 0 .377 1.406 1.541 1.541 0 0 0 1.229.438q1.183.001 1.183-1.252zm6.193-7.423v2.044h1.114v1.637h-1.114v4.126a1.215 1.215 0 0 0 .134.676.608.608 0 0 0 .519.184 2.032 2.032 0 0 0 .515-.054l-.015 1.69a3.387 3.387 0 0 1-1.2.207q-2.105 0-2.128-2.413v-4.418h-.955v-1.637h.961v-2.044zm6.393 9.6a2.142 2.142 0 0 1-1.813.914 2.037 2.037 0 0 1-1.737-.788 3.776 3.776 0 0 1-.592-2.294v-5.387h2.175v5.44q.015 1.214.807 1.214a1.122 1.122 0 0 0 1.076-.645v-6.009h2.19v8.311h-2.044zm3.366-3.65a5.428 5.428 0 0 1 .692-3.051 2.289 2.289 0 0 1 2.013-1.007 1.941 1.941 0 0 1 1.6.83V-27h2.19v11.8h-1.975l-.1-.845a2 2 0 0 1-1.721 1 2.271 2.271 0 0 1-1.994-1 5.253 5.253 0 0 1-.7-2.935zm2.182.546a3.967 3.967 0 0 0 .261 1.717.921.921 0 0 0 .884.488 1.06 1.06 0 0 0 .976-.576v-3.8a1.036 1.036 0 0 0-.968-.615.936.936 0 0 0-.876.484 3.768 3.768 0 0 0-.277 1.721zm8.191 3.865h-2.182v-8.314h2.182zm-2.282-10.468a1.123 1.123 0 0 1 .323-.83 1.163 1.163 0 0 1 .861-.323 1.163 1.163 0 0 1 .861.323 1.123 1.123 0 0 1 .323.83 1.147 1.147 0 0 1-.319.83 1.145 1.145 0 0 1-.864.33 1.145 1.145 0 0 1-.864-.33 1.147 1.147 0 0 1-.321-.83zm3.711 6.04a4.514 4.514 0 0 1 .891-2.966 3.029 3.029 0 0 1 2.467-1.076 3.046 3.046 0 0 1 2.482 1.076 4.54 4.54 0 0 1 .891 2.981v.53a4.522 4.522 0 0 1-.884 2.966 3.033 3.033 0 0 1-2.474 1.068 3.048 3.048 0 0 1-2.486-1.072 4.538 4.538 0 0 1-.888-2.978zm2.182.546q0 2.228 1.191 2.228 1.1 0 1.183-1.86l.008-.914a3.5 3.5 0 0 0-.315-1.687.981.981 0 0 0-.891-.549.957.957 0 0 0-.864.549 3.535 3.535 0 0 0-.311 1.687z" transform="translate(-190.133 -160) translate(276.564 190.934)"/>
        <path fill="#2ac1ce" d="M3.2 19a1.288 1.288 0 0 1 1.045-1.265l1.5-6.039H6.94l-1.305 5.16 4.926-5.964q-.037-.049-.069-.1H2.385a1.287 1.287 0 1 1-.812-1.93L7.6 1.676a1.288 1.288 0 1 1 1.47.877l-1.5 6.038H6.375l1.306-5.156-5.064 6.131h7.808a1.288 1.288 0 1 1 1.348 1.826l-6.06 7.224A1.288 1.288 0 1 1 3.2 19z" transform="translate(-190.133 -160) translate(190.133 160)"/>
    </g>
</svg>
