<svg width="190" height="29" viewBox="0 0 190 29" fill="none" xmlns="http://www.w3.org/2000/svg">
<path d="M14.0876 19.8188C12.8308 19.8169 11.6205 19.3495 10.6953 18.5089C9.77018 17.6682 9.19751 16.5154 9.09033 15.278C8.98315 14.0405 9.34925 12.8083 10.1164 11.8246C10.8835 10.8408 11.9959 10.1769 13.2341 9.96395C14.4722 9.75099 15.7462 10.0044 16.8046 10.6742C17.8629 11.344 18.6288 12.3815 18.951 13.582C19.2732 14.7824 19.1283 16.0586 18.545 17.1587C17.9617 18.2588 16.9822 19.1029 15.8 19.5243C15.2507 19.7192 14.6713 19.8189 14.0876 19.8188Z" fill="#FCB422"/>
<path d="M3.908 24.4483C2.00406 22.4832 0.725199 20.0094 0.229762 17.3332C-0.265674 14.657 0.044079 11.896 1.12067 9.392C2.19725 6.88804 3.99339 4.75111 6.28666 3.24583C8.57993 1.74055 11.2696 0.933033 14.0227 0.923277C16.7757 0.91352 19.4712 1.70195 21.7753 3.19094C24.0794 4.67992 25.891 6.80407 26.9858 9.30034C28.0805 11.7966 28.4103 14.5554 27.9343 17.235C27.4583 19.9147 26.1974 22.3975 24.3078 24.3761C24.0866 24.6091 23.8133 24.7878 23.5098 24.8978C23.2062 25.0078 22.8808 25.0462 22.5596 25.0098C22.2384 24.9733 21.9303 24.8631 21.6599 24.688C21.3894 24.5129 21.1642 24.2777 21.0022 24.0012C20.7794 23.6195 20.6873 23.177 20.7395 22.7394C20.7918 22.3018 20.9856 21.8926 21.2921 21.5726C22.6267 20.1769 23.5177 18.425 23.8548 16.5339C24.1919 14.6427 23.9603 12.6954 23.1886 10.933C22.417 9.17065 21.1392 7.67065 19.5135 6.61877C17.8878 5.56688 15.9856 5.00931 14.0425 5.01509C12.0993 5.02087 10.2006 5.58975 8.58131 6.6513C6.96206 7.71284 5.69345 9.22041 4.93256 10.9873C4.17167 12.7543 3.95192 14.7029 4.30054 16.592C4.64915 18.4811 5.55081 20.2277 6.89386 21.6155C7.20289 21.935 7.39872 22.3449 7.45197 22.7838C7.50522 23.2226 7.41302 23.6667 7.1892 24.0494C7.02896 24.3237 6.80646 24.5575 6.53922 24.7323C6.27199 24.9072 5.96732 25.0183 5.64922 25.057C5.33111 25.0957 5.00827 25.0608 4.70611 24.9552C4.40395 24.8496 4.13074 24.6761 3.908 24.4483Z" fill="url(#paint0_linear)"/>
<path d="M14.0415 28.7432C12.9467 28.7438 11.8555 28.618 10.7901 28.3683C10.4745 28.2965 10.1802 28.1527 9.93082 27.9484C9.68147 27.744 9.48398 27.4848 9.35415 27.1916C9.22433 26.8983 9.16577 26.579 9.18317 26.2594C9.20058 25.9397 9.29345 25.6285 9.45437 25.3507C9.67854 24.9683 10.0218 24.6679 10.433 24.4941C10.8442 24.3204 11.3012 24.2828 11.7358 24.3868C13.27 24.7483 14.8694 24.7437 16.4015 24.3734C16.8374 24.2666 17.2966 24.3026 17.71 24.476C18.1234 24.6493 18.4686 24.9507 18.6937 25.3346C18.8542 25.6111 18.9472 25.9207 18.9655 26.2389C18.9837 26.5571 18.9267 26.8752 18.7989 27.1678C18.6711 27.4604 18.476 27.7196 18.2292 27.9247C17.9824 28.1298 17.6906 28.2753 17.3769 28.3496C16.2852 28.613 15.1653 28.7451 14.0415 28.7432Z" fill="#FCB422"/>
<path d="M58.6316 16.1265C58.4509 17.6991 57.8639 18.9121 56.8704 19.7653C55.8769 20.6186 54.5628 21.0461 52.9281 21.0479C51.1507 21.0479 49.7273 20.4177 48.6579 19.1575C47.5886 17.8973 47.053 16.2131 47.0512 14.1049V12.6751C47.0247 11.4207 47.2801 10.1761 47.799 9.03094C48.2511 8.0382 48.9901 7.19977 49.9232 6.62113C50.8808 6.04643 51.9841 5.75296 53.1042 5.77502C54.7028 5.77502 55.9835 6.21593 56.9463 7.09774C57.909 7.97955 58.4708 9.19963 58.6316 10.758H56.6265C56.4459 9.56913 56.072 8.70874 55.5048 8.1768C54.9376 7.64486 54.1338 7.3771 53.0934 7.37353C52.5199 7.34953 51.949 7.46345 51.4299 7.7055C50.9108 7.94755 50.4588 8.3105 50.1129 8.76319C49.3904 9.68962 49.0291 11.007 49.0291 12.7153V14.1558C49.0291 15.7623 49.3696 17.0467 50.0506 18.0088C50.3658 18.4673 50.7937 18.839 51.2942 19.0892C51.7947 19.3393 52.3514 19.4595 52.9118 19.4386C54.0137 19.4386 54.859 19.1923 55.4479 18.6996C56.0359 18.2043 56.4287 17.3475 56.6211 16.1211L58.6316 16.1265Z" fill="#4D4D4D"/>
<path d="M73.4256 13.8907C73.4549 15.1996 73.2009 16.4996 72.6805 17.7036C72.2443 18.7203 71.5113 19.5854 70.5752 20.1883C69.872 20.6397 69.0782 20.9353 68.2485 21.0549C67.4188 21.1745 66.5727 21.1153 65.7683 20.8813C64.9639 20.6472 64.2202 20.244 63.5884 19.6992C62.9566 19.1543 62.4516 18.4809 62.108 17.725C61.5803 16.5618 61.3141 15.2993 61.3277 14.0246V12.9536C61.3018 11.6525 61.5596 10.3613 62.0836 9.16748C62.5165 8.13889 63.2547 7.26411 64.2008 6.65848C65.1469 6.05285 66.2566 5.74482 67.3834 5.775C68.5075 5.75252 69.6141 6.05195 70.5698 6.63718C71.5141 7.24238 72.2531 8.11351 72.6913 9.13803C73.2064 10.3433 73.4567 11.6429 73.4256 12.9509V13.8907ZM71.4531 12.9321C71.4531 11.1667 71.0918 9.81367 70.3693 8.87295C70.0107 8.43269 69.5569 8.07747 69.0411 7.83341C68.5253 7.58935 67.9607 7.46266 67.3888 7.46266C66.817 7.46266 66.2524 7.58935 65.7366 7.83341C65.2208 8.07747 64.7669 8.43269 64.4084 8.87295C63.6859 9.81545 63.3156 11.1239 63.2975 12.7983V13.8907C63.2975 15.599 63.6588 16.9378 64.3813 17.9071C64.7192 18.3778 65.1702 18.7581 65.6938 19.0137C66.2174 19.2694 66.7971 19.3924 67.3807 19.3717C68.6614 19.3717 69.6549 18.9111 70.3611 17.9901C71.0674 17.069 71.4287 15.7463 71.4449 14.0219L71.4531 12.9321Z" fill="#4D4D4D"/>
<path d="M88.4983 20.8417H86.5068L78.9338 9.38973V20.8417H76.9478V5.97852H78.9419L86.5285 17.4921V5.97852H88.501L88.4983 20.8417Z" fill="#4D4D4D"/>
<path d="M102.943 7.58237H98.1089V20.8417H96.1364V7.58237H91.3081V5.97583H102.94L102.943 7.58237Z" fill="#4D4D4D"/>
<path d="M113.193 16.9539H106.89L105.476 20.8417H103.43L109.175 5.97852H110.911L116.664 20.8417H114.629L113.193 16.9539ZM107.503 15.3473H112.605L110.042 8.38565L107.503 15.3473Z" fill="#4D4D4D"/>
<path d="M130.281 16.1265C130.101 17.6991 129.514 18.912 128.52 19.7653C127.527 20.6185 126.213 21.0461 124.578 21.0478C122.804 21.0478 121.381 20.4177 120.308 19.1575C119.235 17.8972 118.699 16.213 118.701 14.1049V12.6751C118.675 11.4207 118.93 10.176 119.449 9.03092C119.902 8.0387 120.641 7.20047 121.573 6.62111C122.531 6.04734 123.634 5.75481 124.754 5.77767C126.353 5.77767 127.633 6.21858 128.596 7.10039C129.559 7.9822 130.121 9.20228 130.281 10.7606H128.287C128.117 9.57178 127.744 8.71139 127.166 8.17945C126.588 7.64751 125.784 7.37975 124.754 7.37618C124.181 7.35264 123.61 7.46676 123.091 7.70878C122.572 7.95079 122.12 8.31349 121.774 8.76584C121.051 9.69228 120.69 11.0096 120.69 12.7179V14.1585C120.69 15.765 121.03 17.0493 121.711 18.0115C122.027 18.4699 122.454 18.8417 122.955 19.0918C123.455 19.3419 124.012 19.4622 124.573 19.4413C125.674 19.4413 126.52 19.195 127.109 18.7023C127.699 18.2069 128.089 17.3501 128.282 16.1238L130.281 16.1265Z" fill="#4D4D4D"/>
<path d="M143.601 7.58237H138.776V20.8417H136.8V7.58237H131.978V5.97583H143.601V7.58237Z" fill="#4D4D4D"/>
<path d="M148.497 20.8417H146.514V5.97852H148.497V20.8417Z" fill="#4D4D4D"/>
<path d="M160.942 14.279H154.637V20.8417H152.654V5.97852H161.972V7.58506H154.637V12.6724H160.942V14.279Z" fill="#4D4D4D"/>
<path d="M166.258 17.5054C166.763 17.488 167.255 17.6613 167.635 17.9901C167.807 18.1484 167.945 18.3403 168.039 18.5536C168.133 18.7669 168.181 18.9971 168.181 19.2298C168.181 19.4625 168.133 19.6926 168.039 19.906C167.945 20.1193 167.807 20.3111 167.635 20.4695C167.246 20.7852 166.759 20.9579 166.257 20.9579C165.754 20.9579 165.267 20.7852 164.879 20.4695C164.708 20.3114 164.571 20.1203 164.478 19.908C164.385 19.6956 164.337 19.4666 164.337 19.2351C164.337 19.0036 164.385 18.7746 164.478 18.5623C164.571 18.35 164.708 18.1588 164.879 18.0008C165.257 17.6665 165.751 17.4891 166.258 17.5054Z" fill="#FCB422"/>
<path d="M179.733 18.0624H174.761L173.894 20.839H170.019L175.536 5.97583H178.944L184.515 20.8417H180.61L179.733 18.0624ZM175.63 15.2991H178.866L177.24 10.1448L175.63 15.2991Z" fill="#FCB422"/>
<path d="M189.993 20.8417H186.376V5.97852H189.993V20.8417Z" fill="#FCB422"/>
<defs>
<linearGradient id="paint0_linear" x1="14.074" y1="0.690301" x2="14.074" y2="28.5611" gradientUnits="userSpaceOnUse">
<stop offset="0.01" stop-color="#6B29FF"/>
<stop offset="1" stop-color="#815BE4"/>
</linearGradient>
</defs>
</svg>
