<?xml version="1.0" encoding="UTF-8"?>
<svg xmlns="http://www.w3.org/2000/svg" width="130" height="39" viewBox="0 0 130 39" fill="none">
  <g id="Logo">
    <g id="Vector">
      <path d="M54.1897 7.44141H52.2696V25.9109H54.1897V7.44141Z" fill="white"></path>
      <path d="M47.3551 26.0233C43.5866 26.0233 40.5205 22.9572 40.5205 19.1887C40.5205 15.4203 43.5866 12.3541 47.3551 12.3541C51.1236 12.3541 54.1897 15.4203 54.1897 19.1887C54.1897 22.9572 51.1236 26.0233 47.3551 26.0233ZM47.3551 14.2734C44.645 14.2734 42.4406 16.4777 42.4406 19.1879C42.4406 21.898 44.645 24.1024 47.3551 24.1024C50.0652 24.1024 52.2696 21.898 52.2696 19.1879C52.2696 16.4777 50.0652 14.2734 47.3551 14.2734Z" fill="white"></path>
    </g>
    <path id="Vector_2" d="M129.998 25.9115H127.255V19.1947C127.255 16.9478 125.636 15.1198 123.647 15.1198C121.657 15.1198 120.039 16.9478 120.039 19.1947H117.296C117.296 15.4351 120.145 12.377 123.648 12.377C127.15 12.377 130 15.4351 130 19.1947V25.9115H129.998Z" fill="#E35D11"></path>
    <path id="Vector_3" d="M120.038 12.3105H117.295V25.9116H120.038V12.3105Z" fill="#E35D11"></path>
    <path id="Vector_4" d="M90.2704 25.9312C86.509 25.9312 83.4491 22.8713 83.4491 19.1099C83.4491 15.3485 86.509 12.2886 90.2704 12.2886C94.0318 12.2886 97.0917 15.3485 97.0917 19.1099V20.4818H86.4302C86.9944 22.0574 88.5035 23.1883 90.2713 23.1883C91.4545 23.1883 92.5784 22.6747 93.3543 21.7801L95.4267 23.5771C94.1292 25.073 92.2499 25.9312 90.2704 25.9312ZM86.4302 17.7389H94.1115C93.5473 16.1633 92.0382 15.0323 90.2704 15.0323C88.5026 15.0323 86.9944 16.1633 86.4302 17.7389Z" fill="#E35D11"></path>
    <path id="Vector_5" d="M106.86 25.9312C103.098 25.9312 100.038 22.8713 100.038 19.1099C100.038 15.3485 103.098 12.2886 106.86 12.2886C110.621 12.2886 113.681 15.3485 113.681 19.1099V20.4818H103.019C103.584 22.0574 105.093 23.1883 106.86 23.1883C108.044 23.1883 109.168 22.6747 109.943 21.7801L112.016 23.5771C110.717 25.073 108.838 25.9312 106.86 25.9312ZM103.018 17.7389H110.7C110.136 16.1633 108.626 15.0323 106.859 15.0323C105.092 15.0323 103.583 16.1633 103.018 17.7389Z" fill="#E35D11"></path>
    <g id="Vector_6">
      <path d="M70.1244 7.44141H67.3815V25.9109H70.1244V7.44141Z" fill="#E35D11"></path>
      <path d="M74.2161 26.0065C70.4565 26.0065 67.3984 22.9483 67.3984 19.1887C67.3984 15.4291 70.4565 12.371 74.2161 12.371C77.9757 12.371 81.0339 15.4291 81.0339 19.1887C81.0339 22.9483 77.9757 26.0065 74.2161 26.0065ZM74.2161 15.113C71.9692 15.113 70.1412 16.9409 70.1412 19.1879C70.1412 21.4348 71.9692 23.2628 74.2161 23.2628C76.463 23.2628 78.291 21.4348 78.291 19.1879C78.291 16.9409 76.463 15.113 74.2161 15.113Z" fill="#E35D11"></path>
    </g>
    <g id="Vector_7">
      <path d="M10.9866 35.7822C4.20952 31.9022 0 24.9339 0 17.598C0 7.89384 7.89385 0 17.5971 0C27.3003 0 35.1951 7.89384 35.1951 17.598C35.1951 25.6778 29.735 32.6895 21.9138 34.6619C21.5285 34.777 19.9255 35.157 18.4367 34.088C16.97 33.0341 16.2261 30.9988 16.2261 28.0372H18.969C18.969 29.9794 19.3578 31.3726 20.0371 31.8606C20.5118 32.2015 21.1007 32.043 21.1069 32.0412L21.2123 32.0102C27.8299 30.3558 32.4522 24.4299 32.4522 17.598C32.4522 9.40743 25.7885 2.74376 17.598 2.74376C9.40743 2.74376 2.74376 9.40743 2.74376 17.598C2.74376 23.9534 6.42454 30.0095 12.3505 33.4016L10.9866 35.7822Z" fill="#E35D11"></path>
      <path d="M17.5971 29.4082C11.0849 29.4082 5.78687 24.1102 5.78687 17.598C5.78687 15.7877 6.20667 13.981 6.99933 12.3717L7.37662 11.6065H11.4807C12.238 11.6065 12.8526 12.2203 12.8526 12.9784C12.8526 13.7356 12.2389 14.3503 11.4807 14.3503H9.12668C8.73433 15.3794 8.52975 16.4874 8.52975 17.598C8.52975 22.5975 12.5976 26.6653 17.5971 26.6653C22.5966 26.6653 26.6644 22.5975 26.6644 17.598C26.6644 16.4714 26.4634 15.3821 26.0666 14.3503H23.7099C22.9526 14.3503 22.338 13.7365 22.338 12.9784C22.338 12.2212 22.9518 11.6065 23.7099 11.6065H27.8131L28.1904 12.3699C28.9981 14.004 29.4073 15.762 29.4073 17.5971C29.4082 24.1102 24.1102 29.4082 17.5971 29.4082Z" fill="#E35D11"></path>
      <path d="M13.4593 34.5769C14.0633 34.5769 14.5531 35.0666 14.5531 35.6707C14.5531 36.2747 14.0633 36.7644 13.4593 36.7644C12.8553 36.7644 12.3655 36.2747 12.3655 35.6707C12.3655 35.0666 12.8553 34.5769 13.4593 34.5769ZM13.4593 32.6568C11.7969 32.6568 10.4454 34.0092 10.4454 35.6707C10.4454 37.3321 11.7978 38.6845 13.4593 38.6845C15.1217 38.6845 16.4732 37.3321 16.4732 35.6707C16.4732 34.0092 15.1217 32.6568 13.4593 32.6568Z" fill="#E35D11"></path>
    </g>
    <g id="Vector_8">
      <path d="M59.0404 12.3877H57.1203V25.9117H59.0404V12.3877Z" fill="white"></path>
      <path d="M62.1588 13.4841C59.3805 13.4841 57.1203 15.7443 57.1203 18.5226H59.0404C59.0404 16.8027 60.4397 15.4042 62.1588 15.4042C62.9718 15.4042 63.7353 15.7151 64.3189 16.2766V13.9677C63.6529 13.6506 62.9187 13.4841 62.1588 13.4841Z" fill="white"></path>
    </g>
  </g>
</svg>
