<?xml version="1.0" encoding="UTF-8"?>
<svg width="236px" height="54px" viewBox="0 0 236 54" version="1.1" xmlns="http://www.w3.org/2000/svg" xmlns:xlink="http://www.w3.org/1999/xlink">
    <!-- Generator: Sketch 55.2 (78181) - https://sketchapp.com -->
    <title>Group 9</title>
    <desc>Created with Sketch.</desc>
    <defs>
        <linearGradient x1="78.7472408%" y1="10.4680301%" x2="34.0448128%" y2="87.901948%" id="linearGradient-1">
            <stop stop-color="#3FDE71" offset="0%"></stop>
            <stop stop-color="#329EB5" offset="100%"></stop>
        </linearGradient>
        <linearGradient x1="50%" y1="0%" x2="50%" y2="100%" id="linearGradient-2">
            <stop stop-color="#000000" stop-opacity="0.0946241259" offset="0%"></stop>
            <stop stop-color="#000000" stop-opacity="0.544826267" offset="100%"></stop>
        </linearGradient>
    </defs>
    <g id="Page-1" stroke="none" stroke-width="1" fill="none" fill-rule="evenodd">
        <g id="Homepage" transform="translate(-43.000000, -28.000000)">
            <g id="Group-9" transform="translate(43.000000, 28.000000)">
                <path d="M67.4512004,46 L67.4512004,25.4079992 L74.5648007,25.4079992 C79.5760009,25.4079992 82.427201,27.6255993 82.427201,31.9743994 L82.427201,32.0895994 C82.427201,36.4383996 79.4032009,38.5119997 74.7088007,38.5119997 L72.0880006,38.5119997 L72.0880006,46 L67.4512004,46 Z M72.0880006,35.2575996 L74.4496007,35.2575996 C76.7248007,35.2575996 77.9344008,34.1631995 77.9344008,32.1183994 L77.9344008,32.0031994 C77.9344008,29.8143994 76.6672007,28.9503993 74.4496007,28.9503993 L72.0880006,28.9503993 L72.0880006,35.2575996 Z M84.9456011,46 L84.9456011,24.1119991 L89.1216013,24.1119991 L89.1216013,33.3279995 C89.8704013,31.8303994 91.5120014,30.5919994 94.0176015,30.5919994 C96.9840016,30.5919994 99.0864017,32.3775995 99.0864017,36.4095996 L99.0864017,46 L94.9104015,46 L94.9104015,37.0143996 C94.9104015,34.9695996 94.1040015,33.9903995 92.2608014,33.9903995 C90.4752013,33.9903995 89.1216013,35.0847996 89.1216013,37.3023997 L89.1216013,46 L84.9456011,46 Z M109.524802,43.1487999 C111.857602,43.1487999 113.211202,41.4207998 113.211202,38.5695997 L113.211202,38.3679997 C113.211202,35.4879996 111.857602,33.7599995 109.524802,33.7599995 C107.220802,33.7599995 105.838402,35.4303996 105.838402,38.3103997 L105.838402,38.5407997 C105.838402,41.4207998 107.163202,43.1487999 109.524802,43.1487999 Z M109.496002,46.3168 C105.003202,46.3168 101.576002,43.3215999 101.576002,38.6271997 L101.576002,38.3967997 C101.576002,33.6735995 105.003202,30.5919994 109.524802,30.5919994 C114.046402,30.5919994 117.444802,33.6159995 117.444802,38.3103997 L117.444802,38.5407997 C117.444802,43.2927999 114.017602,46.3168 109.496002,46.3168 Z M120.078403,46 L120.078403,30.9375994 L124.254403,30.9375994 L124.254403,33.3279995 C125.003203,31.8303994 126.644803,30.5919994 129.150403,30.5919994 C132.116803,30.5919994 134.219203,32.3775995 134.219203,36.4095996 L134.219203,46 L130.043203,46 L130.043203,37.0143996 C130.043203,34.9695996 129.236803,33.9903995 127.393603,33.9903995 C125.608003,33.9903995 124.254403,35.0847996 124.254403,37.3023997 L124.254403,46 L120.078403,46 Z M144.571204,46.3168 C140.020803,46.3168 136.708803,43.4655999 136.708803,38.6559997 L136.708803,38.4255997 C136.708803,33.6735995 140.078403,30.5919994 144.456004,30.5919994 C148.344004,30.5919994 151.800004,32.8671995 151.800004,38.2527997 L151.800004,39.4047997 L140.942403,39.4047997 C141.057603,41.9103998 142.411204,43.3503999 144.686404,43.3503999 C146.616004,43.3503999 147.566404,42.5151999 147.825604,41.2479998 L151.771204,41.2479998 C151.281604,44.5023999 148.689604,46.3168 144.571204,46.3168 Z M141.000003,36.8415996 L147.739204,36.8415996 C147.595204,34.5663995 146.443204,33.4719995 144.456004,33.4719995 C142.584004,33.4719995 141.316803,34.7103996 141.000003,36.8415996 Z M161.201604,46.3168 C156.795204,46.3168 153.454404,43.5807999 153.454404,38.6559997 L153.454404,38.4255997 C153.454404,33.5583995 156.939204,30.5919994 161.230404,30.5919994 C164.715204,30.5919994 167.940805,32.1183994 168.315205,36.4383996 L164.369604,36.4383996 C164.081604,34.6815996 163.016004,33.8751995 161.316804,33.8751995 C159.156804,33.8751995 157.716804,35.4879996 157.716804,38.3679997 L157.716804,38.5983997 C157.716804,41.6223998 159.070404,43.1775999 161.403204,43.1775999 C163.073604,43.1775999 164.427204,42.1983998 164.628804,40.2687998 L168.401605,40.2687998 C168.171205,43.8399999 165.579205,46.3168 161.201604,46.3168 Z M170.862405,46 L170.862405,24.1119991 L175.038405,24.1119991 L175.038405,33.3279995 C175.787205,31.8303994 177.428805,30.5919994 179.934405,30.5919994 C182.900805,30.5919994 185.003205,32.3775995 185.003205,36.4095996 L185.003205,46 L180.827205,46 L180.827205,37.0143996 C180.827205,34.9695996 180.020805,33.9903995 178.177605,33.9903995 C176.392005,33.9903995 175.038405,35.0847996 175.038405,37.3023997 L175.038405,46 L170.862405,46 Z M195.355206,46.3168 C190.804806,46.3168 187.492805,43.4655999 187.492805,38.6559997 L187.492805,38.4255997 C187.492805,33.6735995 190.862406,30.5919994 195.240006,30.5919994 C199.128006,30.5919994 202.584006,32.8671995 202.584006,38.2527997 L202.584006,39.4047997 L191.726406,39.4047997 C191.841606,41.9103998 193.195206,43.3503999 195.470406,43.3503999 C197.400006,43.3503999 198.350406,42.5151999 198.609606,41.2479998 L202.555206,41.2479998 C202.065606,44.5023999 199.473606,46.3168 195.355206,46.3168 Z M191.784006,36.8415996 L198.523206,36.8415996 C198.379206,34.5663995 197.227206,33.4719995 195.240006,33.4719995 C193.368006,33.4719995 192.100806,34.7103996 191.784006,36.8415996 Z M211.985606,46.3168 C207.579206,46.3168 204.238406,43.5807999 204.238406,38.6559997 L204.238406,38.4255997 C204.238406,33.5583995 207.723206,30.5919994 212.014406,30.5919994 C215.499207,30.5919994 218.724807,32.1183994 219.099207,36.4383996 L215.153607,36.4383996 C214.865607,34.6815996 213.800007,33.8751995 212.100806,33.8751995 C209.940806,33.8751995 208.500806,35.4879996 208.500806,38.3679997 L208.500806,38.5983997 C208.500806,41.6223998 209.854406,43.1775999 212.187206,43.1775999 C213.857607,43.1775999 215.211207,42.1983998 215.412807,40.2687998 L219.185607,40.2687998 C218.955207,43.8399999 216.363207,46.3168 211.985606,46.3168 Z M221.646407,46 L221.646407,24.1119991 L225.822407,24.1119991 L225.822407,37.3023997 L230.660807,30.9375994 L235.096007,30.9375994 L229.624007,37.7919997 L235.528007,46 L230.804807,46 L225.822407,38.8863997 L225.822407,46 L221.646407,46 Z" id="Phonecheck" fill="#313131" fill-rule="nonzero"></path>
                <g id="Group">
                    <polygon id="Path-5-Copy" fill="url(#linearGradient-1)" points="13.241102 26.2077884 0 37.9737164 13.241102 54 33.0182321 54 58 9.55841206 41.9542176 0 22 38 21.7494043 37.6009476"></polygon>
                    <polygon id="Path-6-Copy" fill="url(#linearGradient-2)" points="22.0707965 37.6072504 33.3628319 54 27.0570123 29.5471698"></polygon>
                </g>
            </g>
        </g>
    </g>
</svg>